<?xml version="1.0" encoding="UTF-8"?>
<svg id="Layer_1" xmlns="http://www.w3.org/2000/svg" version="1.1" viewBox="0 0 515.62 506.62">
  <!-- Generator: Adobe Illustrator 30.6.0, SVG Export Plug-In . SVG Version: 2.1.4 Build 109)  -->
  <defs>
    <style>
      .st0 {
        fill: #8760dd;
      }

      .st1 {
        fill: #fdfdfc;
      }

      .st2 {
        fill: none;
        stroke: #170f24;
        stroke-linecap: round;
        stroke-linejoin: round;
        stroke-width: 6px;
      }

      .st3, .st4 {
        fill: #fff;
      }

      .st5 {
        fill: #d8d8d8;
        opacity: .5;
      }

      .st5, .st4 {
        isolation: isolate;
      }

      .st6 {
        fill: #fafafa;
      }

      .st7 {
        fill: #170f24;
      }

      .st8 {
        fill: #060505;
      }

      .st4 {
        opacity: .1;
      }
    </style>
  </defs>
  <rect class="st0" width="515.62" height="506.62"/>
  <g>
    <path class="st7" d="M113.71,164.3c-2.61,2.92-5.16,9.24-6.62,12.86-8.95,22.16-12.81,47.01-11.09,70.86.28,3.89.49,7.71.62,11.49-9.16-9-21.39-13.44-33.51-10.84-20.88,4.47-33.52,28.1-28.24,52.79,5.28,24.68,26.48,41.08,47.36,36.61.67-.14,1.33-.31,1.98-.49-.69,2.18-1.34,4.43-1.86,6.89-5.94,28.46,8.74,53.01,29.51,71.2,42.84,36.62,109.22,50.18,164.14,46.94,47.74-2.81,104.45-19.68,137.02-55.86,20.22-22.48,25.5-43.16,18.84-69.04.5.13,1,.25,1.51.36,20.87,4.47,42.08-11.93,47.36-36.61,5.28-24.69-7.36-48.32-28.24-52.79-11.79-2.52-23.69,1.61-32.76,10.13,1.52-26.66.87-52.7-9.38-78.07-.98-2.43-5.54-13.26-7.25-14.45-.9-2.17-2.36-5.16-3.77-7.01-5.04-8.76-13.49-18.6-20.52-25.68-13.47-16.89-42.53-30.87-62.46-38.49l-3.42,4.14c-2.3,2.42-4.64,6.78-8.34,7.15l-.55-.65c.31-7.69,9.36-17.54,14.33-22.72l1.53-1.41-.1-.69c-14.34-6.16-26.9-4.8-41.43.11-4.01,1.36-10.27,3.97-14.09,4.93-.03-.02-3.25-4.31-3.61-4.77,7.1-10.5,13.94-15.48,8.95-29.51l-.46-1c-1.91.62-6.92,5.14-9.1,6.45-22.92,13.75-47.29,24.91-70.41,38.31-6.3,3.65-11.79,7.68-17.63,12-12.52,7.79-25.3,16.03-35.55,26.9-4.93,4.94-8.24,8.57-12.68,14.11-2.55,3.05-3.86,5.69-6.05,8.65-1.74,2.12-1.96,2.67-3.09,5.19M446.27,304.26c-5.43,7.86-12.76,12.21-16.38,9.71-3.62-2.51-2.17-10.91,3.25-18.77s12.75-12.21,16.38-9.7c3.62,2.5,2.17,10.9-3.25,18.76ZM446.27,304.26c-5.43,7.86-12.76,12.21-16.38,9.71-3.62-2.51-2.17-10.91,3.25-18.77s12.75-12.21,16.38-9.7c3.62,2.5,2.17,10.9-3.25,18.76ZM446.27,304.26c-5.43,7.86-12.76,12.21-16.38,9.71-3.62-2.51-2.17-10.91,3.25-18.77s12.75-12.21,16.38-9.7c3.62,2.5,2.17,10.9-3.25,18.76ZM446.27,304.26c-5.43,7.86-12.76,12.21-16.38,9.71-3.62-2.51-2.17-10.91,3.25-18.77s12.75-12.21,16.38-9.7c3.62,2.5,2.17,10.9-3.25,18.76Z"/>
    <path class="st1" d="M368.47,337.45c-3.58,4.79-7.88,9.23-11.33,13.99,8.63,7.67,16.62,16.1,17.18,28.02.42,8.84-6.11,19.31-12.94,25.26-25.32,22.04-68.83,29.79-103.54,30.37h-.07c-34.71-.58-78.21-8.33-103.54-30.37-6.83-5.95-13.34-16.42-12.93-25.26.56-11.92,8.55-20.35,17.18-28.02-3.46-4.76-7.76-9.19-11.34-13.99-10.54-14.13-18.48-31.83-21.14-48.83-3.18-20.27.04-44.74,13.81-61.41,10.67-12.93,24.79-19.81,41.98-21.98,19.73-2.74,41.47,7.11,56.68,17.84,6.3,4.46,12.46,9.45,19.34,13.08,6.89-3.63,13.04-8.62,19.34-13.08,15.2-10.74,36.95-20.58,56.68-17.84,17.18,2.17,31.31,9.05,41.99,21.98,13.76,16.68,16.98,41.14,13.81,61.41-2.67,17.01-10.61,34.7-21.15,48.83h0Z"/>
    <path class="st8" d="M333.42,250.74c7.32-.65,11.2,1.01,17.49,4.11-4.81.86-7.66,1.46-12.27,3.01,21.11,29.86-8.29,66.53-32.25,39.87-5.92-7.46-6.97-11.63-7.92-20.97-12.3,4.81-18.16,1.42-18.83-12.13,10.44,9.64,13.02,4.64,24.27-.79,9.3-4.49,19.38-10.86,29.5-13.09h.01Z"/>
    <path class="st6" d="M312.86,267.41c.23.03.46.06.69.1,9.37,1.58,10.96,13.63,1.3,18.87-.84-.06-1.26-.08-2.09-.37-2.43-.85-4.41-2.66-5.48-5-2.66-5.71-.33-11.41,5.58-13.6h0Z"/>
    <path class="st8" d="M169.29,250.71c13.53-1.29,26.83,8.82,38.56,14.6,11.2,5.52,12.16,7.71,22.13-.65-2.07,13.44-6.14,16.84-19.16,11.99-.4,6.26-1.76,10.3-4.43,15.87-14.55,27.8-45.99,11.58-42.77-15.91.99-8.39,2.14-12.17,7.11-19.1-4.17-1.07-7.36-1.91-11.64-2.54,3.81-2.32,5.96-3.14,10.2-4.26h0Z"/>
    <path class="st6" d="M194.36,267.34c10.09-.29,12.3,13.69,1.87,18.9-9.75.71-11.34-13.1-1.87-18.9Z"/>
    <g>
      <path class="st7" d="M69.35,304.26c5.43,7.86,12.76,12.21,16.38,9.71,3.62-2.51,2.17-10.91-3.25-18.77s-12.75-12.21-16.38-9.7c-3.62,2.5-2.17,10.9,3.25,18.76Z"/>
      <path class="st1" d="M69.35,304.26c5.43,7.86,12.76,12.21,16.38,9.71,3.62-2.51,2.17-10.91-3.25-18.77s-12.75-12.21-16.38-9.7c-3.62,2.5-2.17,10.9,3.25,18.76Z"/>
    </g>
    <g>
      <path class="st7" d="M446.27,304.26c-5.43,7.86-12.76,12.21-16.38,9.71-3.62-2.51-2.17-10.91,3.25-18.77s12.75-12.21,16.38-9.7c3.62,2.5,2.17,10.9-3.25,18.76Z"/>
      <path class="st1" d="M446.27,304.26c-5.43,7.86-12.76,12.21-16.38,9.71-3.62-2.51-2.17-10.91,3.25-18.77s12.75-12.21,16.38-9.7c3.62,2.5,2.17,10.9-3.25,18.76Z"/>
    </g>
    <g>
      <path class="st7" d="M282.91,325.2c-.3,1.01-1.2,1.69-2.27,1.71h-.05c-.81,0-1.55-.39-1.99-1.03-3.22,3.39-7.28,6.55-12.39,9.64-3.04,1.88-5.72,2.81-8.15,2.81h-.29c-2.54.05-5.28-.89-8.42-2.88-4.97-3.05-9.02-6.22-12.31-9.68-.42.72-1.21,1.19-2.1,1.16-1.12-.02-2.06-.78-2.29-1.86-.43-1.9.36-3.77,2.08-4.87,1.9-1.22,4.32-1.17,6.02.14l1.49,1.14c3.85,3.13,7.42,5.58,10.9,7.5l.16.09c1.69.94,2.91,1.63,4.43,1.58h.16c1.48,0,2.67-.68,4.31-1.62l.17-.09c1.82-1.06,3.77-2.23,5.57-3.51,1.37-.94,2.64-1.96,3.99-3.02.44-.35.89-.71,1.34-1.05l1.54-1.17c1.17-.81,2.62-1.14,4-.91,1.42.2,2.74,1.07,3.54,2.33.71,1.12.92,2.44.55,3.61v-.02Z"/>
      <path class="st7" d="M282.55,321.47c-.84-1.33-2.22-2.23-3.7-2.44-1.44-.24-2.97.1-4.18.95l-1.55,1.17c-.45.35-.9.71-1.35,1.07-1.28,1.02-2.6,2.06-3.97,3-1.79,1.27-3.73,2.44-5.54,3.5l-.17.1c-1.67.96-2.77,1.59-4.19,1.59h-.17c-1.44.05-2.57-.58-4.3-1.56l-.16-.09c-3.48-1.91-7.03-4.36-10.87-7.48l-1.49-1.14c-1.75-1.35-4.34-1.42-6.29-.16-1.8,1.16-2.64,3.12-2.18,5.11.25,1.18,1.28,2.03,2.52,2.04h.05c.85,0,1.61-.39,2.09-1.02,3.27,3.39,7.26,6.51,12.16,9.51,3.1,1.97,5.83,2.92,8.34,2.92h.5c2.48,0,5.19-.93,8.27-2.84,5.02-3.03,9.04-6.14,12.25-9.49.5.58,1.26.92,2.05.91,1.17-.02,2.16-.77,2.48-1.87.39-1.26.19-2.6-.57-3.81l-.03.03ZM282.91,325.2c-.3,1.01-1.2,1.69-2.27,1.71h-.05c-.81,0-1.55-.39-1.99-1.03-3.22,3.39-7.28,6.55-12.39,9.64-3.04,1.88-5.72,2.81-8.15,2.81h-.29c-2.54.05-5.28-.89-8.42-2.88-4.97-3.05-9.02-6.22-12.31-9.68-.42.72-1.21,1.19-2.1,1.16-1.12-.02-2.06-.78-2.29-1.86-.43-1.9.36-3.77,2.08-4.87,1.9-1.22,4.32-1.17,6.02.14l1.49,1.14c3.85,3.13,7.42,5.58,10.9,7.5l.16.09c1.69.94,2.91,1.63,4.43,1.58h.16c1.48,0,2.67-.68,4.31-1.62l.17-.09c1.82-1.06,3.77-2.23,5.57-3.51,1.37-.94,2.64-1.96,3.99-3.02.44-.35.89-.71,1.34-1.05l1.54-1.17c1.17-.81,2.62-1.14,4-.91,1.42.2,2.74,1.07,3.54,2.33.71,1.12.92,2.44.55,3.61v-.02Z"/>
    </g>
    <path class="st7" d="M300.84,319.83c-1.55,5.92-5.74,11.19-11.48,14.47-.79.46-1.68.71-2.6.71-1.67,0-3.26-.83-4.24-2.21-1.56-2.28-1.13-5.27.98-6.98,3.59-2.96,5.62-6.46,5.54-9.58-.01-2.1-.92-3.94-2.62-5.36-1.92-1.6-4.48-2.31-6.82-1.9h-.06c-5.19.79-9.51,4.51-13.41,8.42l-2.33,2.41c-1.62,1.86-3.89,2.77-6.41,2.59-2.14-.08-4.15-1.09-5.51-2.76-.32-.39-.72-.86-1.13-1.31l-.85-.94c-4.69-5.09-9.11-7.86-13.5-8.42-3.36-.46-6.51.88-8.25,3.5-1.67,2.52-1.67,5.71,0,8.52l.05.08c.86,1.58,2.22,3.22,4.17,4.98,1.95,1.65,2.29,4.5.79,6.66-1.53,2.18-4.39,2.81-6.65,1.47-8.52-5.16-13-12.74-12.31-20.83.65-7.62,5.94-14.44,13.46-17.39,9.39-3.68,20.07-.96,29.31,7.45.25.23.5.46.75.69,2.91-2.86,6.1-5.14,9.52-6.78,10.04-5.18,24.91-3.77,31.45,7.57,2.76,4.6,3.51,9.78,2.14,14.95h0Z"/>
    <g>
      <path class="st4" d="M340.44,217.08c-1.73,0-3.45.09-5.14.26l-36.38,80.94c6.4,8.85,15.56,15.58,26.22,18.92l41.7-92.79c-7.71-4.65-16.75-7.33-26.41-7.33h.01Z"/>
      <g>
        <circle class="st3" cx="175.68" cy="268.32" r="51.22"/>
        <path class="st5" d="M177.41,217.08c-.53,0-1.05.02-1.57.04l-37.75,83.99c6.89,8.25,16.34,14.29,27.12,16.93l41.3-91.89c-8.26-5.72-18.29-9.07-29.1-9.07h0Z"/>
        <path class="st7" d="M175.67,210.84c-31.68,0-57.46,25.77-57.46,57.45s25.77,57.46,57.46,57.46,57.45-25.77,57.45-57.46-25.77-57.45-57.45-57.45h0ZM175.67,313.28c-24.8,0-44.98-20.18-44.98-44.98s20.18-44.98,44.98-44.98,44.98,20.18,44.98,44.98-20.18,44.98-44.98,44.98Z"/>
        <line class="st2" x1="122.72" y1="266.56" x2="112.3" y2="266.56"/>
      </g>
      <g>
        <circle class="st3" cx="341.72" cy="268.26" r="51.22"/>
        <path class="st5" d="M339.97,217.08c.53,0,1.05.02,1.57.04l37.75,83.99c-6.89,8.25-16.34,14.29-27.12,16.93l-41.3-91.89c8.26-5.72,18.29-9.07,29.1-9.07h0Z"/>
        <path class="st7" d="M284.25,268.29c0,31.68,25.77,57.46,57.45,57.46s57.46-25.77,57.46-57.46-25.77-57.45-57.46-57.45-57.45,25.77-57.45,57.45ZM296.72,268.29c0-24.8,20.18-44.98,44.98-44.98s44.98,20.18,44.98,44.98-20.18,44.98-44.98,44.98-44.98-20.18-44.98-44.98Z"/>
        <line class="st2" x1="394.66" y1="266.56" x2="405.08" y2="266.56"/>
      </g>
      <path class="st7" d="M291.02,253.68v13.75c0,1.32-1.07,2.39-2.39,2.39s-2.39-1.07-2.39-2.39v-13.75c0-4.51-3.66-8.18-8.17-8.18h-38.77c-4.51,0-8.18,3.67-8.18,8.18v13.75c0,1.32-1.07,2.39-2.39,2.39s-2.39-1.07-2.39-2.39v-13.75c0-7.15,5.81-12.95,12.95-12.95h38.77c7.14,0,12.94,5.81,12.94,12.95h.02Z"/>
      <line class="st2" x1="391.66" y1="266.56" x2="402.08" y2="266.56"/>
    </g>
    <path class="st7" d="M303.71,383.02c-.53.84-1.26,1.54-2.12,2.03-.87.49-1.86.74-2.86.74-1.1,0-2.18-.31-3.11-.89-7.67-4.78-21.65-7.74-36.49-7.74h-.56c-15.07,0-28.71,2.9-36.5,7.74-.93.58-2,.89-3.1.89-2.04,0-3.91-1.04-4.99-2.77-.83-1.33-1.09-2.91-.73-4.43.36-1.53,1.29-2.83,2.62-3.66,9.58-5.96,25.54-9.52,42.71-9.52h.56c17.17,0,33.13,3.56,42.71,9.52,1.33.82,2.26,2.12,2.62,3.65.35,1.53.09,3.1-.74,4.44h-.02Z"/>
  </g>
</svg>